<svg id="Capa_1" enable-background="new 0 0 512 512" height="512" viewBox="0 0 512 512" width="512" xmlns="http://www.w3.org/2000/svg"><g><g><circle cx="246.356" cy="276.702" fill="#f3f1f4" r="227.798"/><path d="m246.356 48.904c-3.942 0-7.86.1-11.752.298 120.348 6.116 216.046 105.632 216.046 227.5s-95.698 221.384-216.046 227.5c3.893.198 7.811.298 11.752.298 125.809 0 227.798-101.989 227.798-227.798s-101.989-227.798-227.798-227.798z" fill="#e1dee2"/><circle cx="246.356" cy="276.702" fill="#ffe177" r="181.482"/><path d="m246.356 95.22c-3.949 0-7.866.14-11.752.389 94.751 6.058 169.729 84.812 169.729 181.092s-74.979 175.034-169.729 181.093c3.887.249 7.803.389 11.752.389 100.229 0 181.482-81.252 181.482-181.482-.001-100.229-81.253-181.481-181.482-181.481z" fill="#ffd15b"/><g><path d="m305.979 259.683c0 16.66-6.877 31.716-17.943 42.472-10.676 10.365-25.23 16.76-41.289 16.76-16.048 0-30.613-6.395-41.279-16.77-.201-.18-.401-.381-.601-.581-10.716-10.716-17.352-25.531-17.352-41.88h118.464z" fill="#978ecb"/></g><path d="m282.474 259.683c0 16.66-6.877 31.716-17.943 42.472-8 7.767-18.178 13.304-29.534 15.592 3.798.766 7.727 1.168 11.75 1.168 16.058 0 30.613-6.395 41.289-16.76 11.066-10.756 17.943-25.812 17.943-42.472z" fill="#8379c1"/><g><ellipse cx="366.048" cy="272.601" fill="#fe99a0" rx="28.844" ry="16.697"/><path d="m366.048 255.904c-4.187 0-8.162.521-11.752 1.449 10.07 2.605 17.092 8.45 17.092 15.247s-7.022 12.642-17.092 15.247c3.591.929 7.565 1.449 11.752 1.449 15.93 0 28.844-7.475 28.844-16.697s-12.914-16.695-28.844-16.695z" fill="#fd8087"/><ellipse cx="126.664" cy="272.601" fill="#fe99a0" rx="28.844" ry="16.697"/><path d="m126.664 255.904c-4.187 0-8.162.521-11.752 1.449 10.071 2.605 17.092 8.45 17.092 15.247s-7.022 12.642-17.092 15.247c3.591.929 7.565 1.449 11.752 1.449 15.93 0 28.844-7.475 28.844-16.697s-12.914-16.695-28.844-16.695z" fill="#fd8087"/></g><path d="m288.036 302.155c-10.676 10.365-25.23 16.76-41.289 16.76-16.048 0-30.613-6.395-41.279-16.77 11.006-9.703 25.461-15.597 41.279-15.597 15.828 0 30.282 5.894 41.289 15.607z" fill="#fd4755"/><path d="m272.731 292.214c-2.374 3.605-5.117 6.945-8.2 9.941-8 7.767-18.178 13.304-29.534 15.592 3.798.766 7.727 1.168 11.75 1.168 16.058 0 30.613-6.395 41.289-16.76-4.557-4.022-9.713-7.376-15.305-9.941z" fill="#fb2b3a"/></g><g><path d="m493.442 16.243h-8.742v-8.743c0-4.142-3.358-7.5-7.5-7.5s-7.5 3.358-7.5 7.5v8.743h-8.743c-4.142 0-7.5 3.358-7.5 7.5s3.358 7.5 7.5 7.5h8.743v8.743c0 4.142 3.358 7.5 7.5 7.5s7.5-3.358 7.5-7.5v-8.743h8.743c4.142 0 7.5-3.358 7.5-7.5s-3.359-7.5-7.501-7.5z"/><path d="m60.256 450.684h-8.743v-8.743c0-4.142-3.358-7.5-7.5-7.5s-7.5 3.358-7.5 7.5v8.743h-8.743c-4.142 0-7.5 3.358-7.5 7.5s3.358 7.5 7.5 7.5h8.743v8.743c0 4.142 3.358 7.5 7.5 7.5s7.5-3.358 7.5-7.5v-8.743h8.743c4.142 0 7.5-3.358 7.5-7.5s-3.358-7.5-7.5-7.5z"/><ellipse cx="431.634" cy="76.571" rx="7.632" ry="7.632" transform="matrix(.987 -.16 .16 .987 -6.692 70.129)"/><path d="m173.537 224.961c0 4.142 3.358 7.5 7.5 7.5s7.5-3.358 7.5-7.5c0-14.906-12.127-27.033-27.033-27.033s-27.033 12.127-27.033 27.033c0 4.142 3.358 7.5 7.5 7.5s7.5-3.358 7.5-7.5c0-6.635 5.398-12.033 12.033-12.033s12.033 5.398 12.033 12.033z"/><path d="m317.17 224.961c0-6.635 5.398-12.033 12.033-12.033s12.033 5.398 12.033 12.033c0 4.142 3.358 7.5 7.5 7.5s7.5-3.358 7.5-7.5c0-14.906-12.127-27.033-27.033-27.033s-27.033 12.127-27.033 27.033c0 4.142 3.358 7.5 7.5 7.5s7.5-3.357 7.5-7.5z"/><path d="m200.325 307.605c23.727 24.028 67.565 25.665 92.938-.071 13.036-12.67 20.215-29.664 20.215-47.851 0-4.142-3.358-7.5-7.5-7.5h-118.463c-4.142 0-7.5 3.358-7.5 7.5 0 17.821 6.942 34.578 19.569 47.205.246.246.494.49.741.717zm44.126 3.755c-8.541-.461-18.049-2.823-26.842-8.947 8.684-5.437 18.765-8.365 29.137-8.365 10.379 0 20.462 2.929 29.145 8.368-8.544 5.671-18.907 9.533-31.44 8.944zm53.494-44.177c-1.307 9.096-4.992 17.589-10.75 24.769-11.771-8.356-25.877-12.904-40.448-12.904-14.561 0-28.663 4.545-40.435 12.895-5.756-7.186-9.449-15.683-10.76-24.76z"/><path d="m246.356 41.404c-33.534 0-65.927 6.91-96.28 20.538-29.319 13.164-55.251 31.89-77.077 55.659-2.801 3.051-2.599 7.795.452 10.597s7.795 2.599 10.597-.452c20.44-22.26 44.722-39.796 72.172-52.12 28.408-12.755 58.734-19.222 90.136-19.222 58.844 0 114.166 22.915 155.774 64.523 41.608 41.609 64.523 96.931 64.523 155.774s-22.915 114.166-64.523 155.774c-41.609 41.61-96.93 64.525-155.774 64.525s-114.166-22.915-155.774-64.524-64.524-96.931-64.524-155.774c0-43.749 12.792-86.017 36.994-122.235 2.301-3.444 1.375-8.102-2.069-10.403-3.444-2.302-8.102-1.375-10.403 2.069-25.855 38.693-39.522 83.843-39.522 130.569 0 62.851 24.475 121.939 68.917 166.381s103.53 68.917 166.381 68.917 121.939-24.475 166.381-68.917 68.917-103.53 68.917-166.381-24.475-121.939-68.917-166.381-103.53-68.917-166.381-68.917z"/><path d="m389.036 389.115c3.355 2.43 8.044 1.679 10.474-1.675 23.438-32.362 35.828-70.655 35.828-110.738 0-104.205-84.777-188.981-188.981-188.981-104.205 0-188.982 84.777-188.982 188.981 0 104.205 84.777 188.982 188.982 188.982 47.704 0 93.253-17.824 128.259-50.188 3.042-2.812 3.228-7.557.416-10.598-2.811-3.042-7.556-3.228-10.598-.416-32.226 29.793-74.16 46.202-118.077 46.202-95.934 0-173.982-78.048-173.982-173.982s78.048-173.981 173.982-173.981 173.981 78.048 173.981 173.981c0 36.903-11.403 72.153-32.976 101.939-2.43 3.355-1.68 8.044 1.674 10.474z"/><path d="m366.047 296.797c20.38 0 36.345-10.628 36.345-24.196s-15.964-24.197-36.345-24.197c-20.38 0-36.344 10.628-36.344 24.197 0 13.568 15.964 24.196 36.344 24.196zm-16.638-29.511c4.261-2.467 10.326-3.881 16.639-3.881s12.378 1.415 16.639 3.881c2.902 1.68 4.706 3.717 4.706 5.315s-1.803 3.635-4.706 5.315c-4.261 2.467-10.326 3.881-16.639 3.881s-12.377-1.415-16.639-3.881c-2.902-1.68-4.706-3.717-4.706-5.315 0-1.599 1.803-3.635 4.706-5.315z"/><path d="m126.664 248.404c-20.38 0-36.344 10.628-36.344 24.197 0 13.568 15.964 24.196 36.344 24.196s36.344-10.628 36.344-24.196-15.964-24.197-36.344-24.197zm16.639 29.512c-4.261 2.467-10.326 3.881-16.639 3.881s-12.377-1.415-16.639-3.881c-2.902-1.68-4.706-3.717-4.706-5.315 0-1.599 1.803-3.635 4.706-5.315 4.261-2.467 10.326-3.881 16.639-3.881s12.377 1.415 16.639 3.881c2.902 1.68 4.706 3.717 4.706 5.315-.001 1.598-1.804 3.635-4.706 5.315z"/></g></g></svg>